<?xml version="1.0" encoding="utf-8"?>
<!-- Generator: Adobe Illustrator 21.1.0, SVG Export Plug-In . SVG Version: 6.00 Build 0)  -->
<svg version="1.2" baseProfile="tiny" id="Layer_1" xmlns:xml="http://www.w3.org/XML/1998/namespace"
	 xmlns="http://www.w3.org/2000/svg" xmlns:xlink="http://www.w3.org/1999/xlink" x="0px" y="0px" width="57.6px" height="93.8px"
	 viewBox="0 0 57.6 93.8" overflow="scroll" xml:space="preserve">
<desc>
	<referenceFile>HX711_SCHEMATIC_v1.svg</referenceFile>
</desc>
<rect id="part_symbol" x="7.2" y="7.2" fill="#FFFFFF" stroke="#010101" stroke-width="0.9002" stroke-linecap="round" width="43.2" height="79.4"/>
<line id="connector15pin" fill="none" stroke="#565656" stroke-width="0.7" stroke-linecap="round" stroke-linejoin="round" x1="50.4" y1="36" x2="57.6" y2="36"/>
<rect id="connector15terminal" x="57.9" y="36" fill="none" width="0" height="0"/>
<rect id="connector6terminal" x="28.8" y="94.1" fill="none" width="0" height="0"/>
<line id="connector10pin" fill="none" stroke="#565656" stroke-width="0.7" stroke-linecap="round" stroke-linejoin="round" x1="0" y1="28.8" x2="7.2" y2="28.8"/>
<rect id="connector10terminal" x="-0.4" y="28.8" fill="none" width="0" height="0"/>
<line id="connector9pin" fill="none" stroke="#565656" stroke-width="0.7" stroke-linecap="round" stroke-linejoin="round" x1="0" y1="21.6" x2="7.2" y2="21.6"/>
<rect id="connector9terminal" x="-0.4" y="21.6" fill="none" width="0" height="0"/>
<line display="none" fill="none" stroke="#565656" stroke-width="0.7" stroke-linecap="round" stroke-linejoin="round" x1="0" y1="43.2" x2="7.2" y2="43.2"/>
<line id="connector11pin" fill="none" stroke="#565656" stroke-width="0.7" stroke-linecap="round" stroke-linejoin="round" x1="0" y1="36" x2="7.2" y2="36"/>
<rect id="connector11terminal" x="-0.4" y="36" fill="none" width="0" height="0"/>
<rect id="connector5terminal" x="28.8" y="-0.4" fill="none" width="0" height="0"/>
<line id="connector14pin" fill="none" stroke="#565656" stroke-width="0.7" stroke-linecap="round" stroke-linejoin="round" x1="50.4" y1="28.8" x2="57.6" y2="28.8"/>
<rect id="connector14terminal" x="57.9" y="28.8" fill="none" width="0" height="0"/>
<line id="connector13pin" fill="none" stroke="#565656" stroke-width="0.7" stroke-linecap="round" stroke-linejoin="round" x1="50.4" y1="21.6" x2="57.6" y2="21.6"/>
<rect id="connector13terminal" x="57.9" y="21.6" fill="none" width="0" height="0"/>
<line id="connector12pin" fill="none" stroke="#565656" stroke-width="0.7" stroke-linecap="round" stroke-linejoin="round" x1="0" y1="43.2" x2="7.2" y2="43.2"/>
<rect id="connector12terminal" x="-0.4" y="43.2" fill="none" width="0" height="0"/>
<line id="connector16pin" fill="none" stroke="#565656" stroke-width="0.7" stroke-linecap="round" stroke-linejoin="round" x1="50.4" y1="43.2" x2="57.6" y2="43.2"/>
<rect id="connector16terminal" x="57.9" y="43.2" fill="none" width="0" height="0"/>
<g>
	<g>
		<text transform="matrix(1 0 0 1 43.1998 57.77)" fill="#565656" font-family="'ArialMT'" font-size="4.5px">B+</text>
	</g>
</g>
<g>
	<g>
		<text transform="matrix(1 0 0 1 40.7119 51.6191)" display="none" fill="#565656" font-family="'ArialMT'" font-size="4.5px">Out</text>
	</g>
</g>
<g>
	<g>
		<text transform="matrix(1 0 0 1 8.4613 21.7699)" fill="#565656" font-family="'ArialMT'" font-size="4.5px">Gnd</text>
	</g>
</g>
<g>
	<g>
		<text transform="matrix(1 0 0 1 8.4615 28.7995)" fill="#565656" font-family="'ArialMT'" font-size="4.5px">D</text>
		<text transform="matrix(1 0 0 1 11.7115 28.7995)" fill="#565656" font-family="'ArialMT'" font-size="4.5px">T</text>
	</g>
</g>
<g>
	<g>
		<text transform="matrix(1 0 0 1 8.4614 36.1699)" fill="#565656" font-family="'ArialMT'" font-size="4.5px">SCK</text>
	</g>
</g>
<g>
	<g>
		<text transform="matrix(1 0 0 1 43.2001 21.77)" fill="#565656" font-family="'ArialMT'" font-size="4.5px">E+</text>
	</g>
</g>
<g>
	<g>
		<text transform="matrix(1 0 0 1 9.2188 44.3721)" display="none" fill="#565656" font-family="'ArialMT'" font-size="4.5px">In</text>
	</g>
</g>
<g>
	<g>
		<text transform="matrix(1 0 0 1 43.1998 43.3699)" fill="#565656" font-family="'ArialMT'" font-size="4.5px">A+</text>
	</g>
</g>
<g>
	<g>
		<text transform="matrix(1 0 0 1 43.1999 36.1699)" fill="#565656" font-family="'ArialMT'" font-size="4.5px">A-</text>
	</g>
</g>
<g>
	<g>
		<text transform="matrix(1 0 0 1 43.2001 28.97)" fill="#565656" font-family="'ArialMT'" font-size="4.5px">E-</text>
	</g>
</g>
<g>
	<g>
		<text transform="matrix(1 0 0 1 43.1998 50.5696)" fill="#565656" font-family="'ArialMT'" font-size="4.5px">B-</text>
	</g>
</g>
<g transform="matrix(1 0 0 1 20.0981 60.5039)">
	<g>
		<g>
			<g>
				<text transform="matrix(1 0 0 1 1.301367e-05 7.250000e-06)" fill="#010101" font-family="'ArialMT'" font-size="6px">H</text>
				<text transform="matrix(1 0 0 1 4.333 7.250000e-06)" fill="#010101" font-family="'ArialMT'" font-size="6px">X</text>
				<text transform="matrix(1 0 0 1 8.335 7.250000e-06)" fill="#010101" font-family="'ArialMT'" font-size="6px">7</text>
				<text transform="matrix(1 0 0 1 11.6719 7.250000e-06)" fill="#010101" font-family="'ArialMT'" font-size="6px">1</text>
				<text transform="matrix(1 0 0 1 14.5635 7.250000e-06)" fill="#010101" font-family="'ArialMT'" font-size="6px">1</text>
				<text transform="matrix(1 0 0 1 -1.547 7.199)" fill="#010101" font-family="'ArialMT'" font-size="6px">Module</text>
			</g>
		</g>
	</g>
</g>
<line id="connector16pin_1_" fill="none" stroke="#565656" stroke-width="0.7" stroke-linecap="round" stroke-linejoin="round" x1="50.4" y1="50.6" x2="57.6" y2="50.6"/>
<line id="connector16pin_2_" fill="none" stroke="#565656" stroke-width="0.7" stroke-linecap="round" stroke-linejoin="round" x1="50.4" y1="57.9" x2="57.6" y2="57.9"/>
<g>
	<g>
		<text transform="matrix(1 0 0 1 8.4614 43.3699)" fill="#565656" font-family="'ArialMT'" font-size="4.5px">VCC</text>
	</g>
</g>
</svg>
