<?xml version="1.0" encoding="utf-8"?>
<!-- Generator: Adobe Illustrator 21.1.0, SVG Export Plug-In . SVG Version: 6.00 Build 0)  -->
<svg version="1.2" baseProfile="tiny" id="Capa_1" xmlns="http://www.w3.org/2000/svg" xmlns:xlink="http://www.w3.org/1999/xlink"
	 x="0px" y="0px" width="177.5px" height="57.6px" viewBox="0 0 177.5 57.6" xml:space="preserve">
<desc>
	<referenceFile>sparkfun-electromechanical_g3vm-61e1_breadboard.svg</referenceFile>
</desc>
<desc>Fritzing breadboard generated by brd2svg</desc>
<g id="breadboard">
	<g id="icon">
		<path fill="#1F7A34" d="M0,0v26.6c0,1.7,0,1.7,0,1.7c0,1.2,0-0.3,0,2.6v26.6h177.5V0H0z"/>
		<g transform="translate(100,191.673)">
			<g>
				<g>
					<rect x="-97.5" y="-177.9" fill="#C1BEAD" width="20.2" height="26.3"/>
					<image width="21" height="1" xlink:href="852451A5.png"  transform="matrix(1 0 0 1 -98.1667 -152.073)">
					</image>
					<g>
						<rect x="-96.2" y="-150.6" fill="#B3B3B3" width="4" height="0.5"/>
						<polygon fill="#B3B3B3" points="-92.7,-147.9 -95.7,-147.9 -96.2,-150.1 -92.2,-150.1 						"/>
						<rect x="-95" y="-154.9" fill="#E6E6E6" width="1.5" height="4.3"/>
						<polygon fill="#CCCCCC" points="-92.7,-148.4 -95.7,-148.4 -96.2,-150.6 -92.2,-150.6 						"/>
					</g>
					<g>
						<rect x="-89.4" y="-150.6" fill="#B3B3B3" width="4" height="0.5"/>
						<polygon fill="#B3B3B3" points="-86,-147.9 -88.9,-147.9 -89.4,-150.1 -85.5,-150.1 						"/>
						<rect x="-88.2" y="-154.9" fill="#E6E6E6" width="1.5" height="4.3"/>
						<polygon fill="#CCCCCC" points="-86,-148.4 -88.9,-148.4 -89.4,-150.6 -85.5,-150.6 						"/>
					</g>
					<g>
						<rect x="-82.7" y="-150.6" fill="#B3B3B3" width="4" height="0.5"/>
						<polygon fill="#B3B3B3" points="-79.2,-147.9 -82.2,-147.9 -82.7,-150.1 -78.7,-150.1 						"/>
						<rect x="-81.5" y="-154.9" fill="#E6E6E6" width="1.5" height="4.3"/>
						<polygon fill="#CCCCCC" points="-79.2,-148.4 -82.2,-148.4 -82.7,-150.6 -78.7,-150.6 						"/>
					</g>
					<rect x="-97.5" y="-177.9" fill="#D9D6C3" width="20.2" height="18.8"/>
					<image width="21" height="2" xlink:href="852451A7.png"  transform="matrix(1 0 0 1 -98.1667 -160.073)">
					</image>
					<image width="21" height="2" xlink:href="852451A2.png"  transform="matrix(1 0 0 1 -98.1667 -164.073)">
					</image>
					<rect x="-97.5" y="-177.9" fill="#E1DECF" width="20.2" height="14.8"/>
					<image width="21" height="1" xlink:href="852451A3.png"  transform="matrix(1 0 0 1 -98.1667 -178.073)">
					</image>
					<rect x="-95" y="-154.9" fill="#CCCCCC" width="1.5" height="0.7"/>
					<rect x="-88.2" y="-154.9" fill="#CCCCCC" width="1.5" height="0.7"/>
					<rect x="-81.5" y="-154.9" fill="#CCCCCC" width="1.5" height="0.7"/>
					<rect x="-95" y="-151.3" fill="#CCCCCC" width="1.5" height="0.7"/>
					<rect x="-88.2" y="-151.3" fill="#CCCCCC" width="1.5" height="0.7"/>
					<rect x="-81.5" y="-151.3" fill="#CCCCCC" width="1.5" height="0.7"/>
					<ellipse fill="#D9D6C3" cx="-95.5" cy="-165.2" rx="0.9" ry="1"/>
				</g>
			</g>
		</g>
		<g transform="translate(100,191.673)">
			<g>
				<g>
					<rect x="-76.2" y="-177.9" fill="#C1BEAD" width="20.5" height="26.3"/>
					<image width="22" height="1" xlink:href="852451AD.png"  transform="matrix(1 0 0 1 -77.1667 -152.073)">
					</image>
					<g>
						<rect x="-74.9" y="-150.6" fill="#B3B3B3" width="4" height="0.5"/>
						<polygon fill="#B3B3B3" points="-71.3,-147.9 -74.3,-147.9 -74.9,-150.1 -70.8,-150.1 						"/>
						<rect x="-73.6" y="-154.9" fill="#E6E6E6" width="1.5" height="4.3"/>
						<polygon fill="#CCCCCC" points="-71.3,-148.4 -74.3,-148.4 -74.9,-150.6 -70.8,-150.6 						"/>
					</g>
					<g>
						<rect x="-68" y="-150.6" fill="#B3B3B3" width="4" height="0.5"/>
						<polygon fill="#B3B3B3" points="-64.5,-147.9 -67.5,-147.9 -68,-150.1 -64,-150.1 						"/>
						<rect x="-66.7" y="-154.9" fill="#E6E6E6" width="1.5" height="4.3"/>
						<polygon fill="#CCCCCC" points="-64.5,-148.4 -67.5,-148.4 -68,-150.6 -64,-150.6 						"/>
					</g>
					<g>
						<rect x="-61.2" y="-150.6" fill="#B3B3B3" width="4" height="0.5"/>
						<polygon fill="#B3B3B3" points="-57.7,-147.9 -60.7,-147.9 -61.2,-150.1 -57.1,-150.1 						"/>
						<rect x="-59.9" y="-154.9" fill="#E6E6E6" width="1.5" height="4.3"/>
						<polygon fill="#CCCCCC" points="-57.7,-148.4 -60.7,-148.4 -61.2,-150.6 -57.1,-150.6 						"/>
					</g>
					<rect x="-76.2" y="-177.9" fill="#D9D6C3" width="20.5" height="18.8"/>
					<image width="22" height="2" xlink:href="852451AF.png"  transform="matrix(1 0 0 1 -77.1667 -160.073)">
					</image>
					<image width="22" height="2" xlink:href="852451A0.png"  transform="matrix(1 0 0 1 -77.1667 -164.073)">
					</image>
					<rect x="-76.2" y="-177.9" fill="#E1DECF" width="20.5" height="14.8"/>
					<image width="22" height="1" xlink:href="852451A1.png"  transform="matrix(1 0 0 1 -77.1667 -178.073)">
					</image>
					<rect x="-73.6" y="-154.9" fill="#CCCCCC" width="1.5" height="0.7"/>
					<rect x="-66.7" y="-154.9" fill="#CCCCCC" width="1.5" height="0.7"/>
					<rect x="-59.9" y="-154.9" fill="#CCCCCC" width="1.5" height="0.7"/>
					<rect x="-73.6" y="-151.3" fill="#CCCCCC" width="1.5" height="0.7"/>
					<rect x="-66.7" y="-151.3" fill="#CCCCCC" width="1.5" height="0.7"/>
					<rect x="-59.9" y="-151.3" fill="#CCCCCC" width="1.5" height="0.7"/>
					<ellipse fill="#D9D6C3" cx="-74.2" cy="-165.2" rx="0.9" ry="1"/>
				</g>
			</g>
		</g>
		<g transform="translate(100,191.673)">
			<g>
				<g>
					<rect x="-54.3" y="-177.9" fill="#C1BEAD" width="20" height="26.3"/>
					<image width="21" height="1" xlink:href="852451A6.png"  transform="matrix(1 0 0 1 -55.1667 -152.073)">
					</image>
					<g>
						<rect x="-53" y="-150.6" fill="#B3B3B3" width="3.9" height="0.5"/>
						<polygon fill="#B3B3B3" points="-49.6,-147.9 -52.5,-147.9 -53,-150.1 -49.1,-150.1 						"/>
						<rect x="-51.8" y="-154.9" fill="#E6E6E6" width="1.5" height="4.3"/>
						<polygon fill="#CCCCCC" points="-49.6,-148.4 -52.5,-148.4 -53,-150.6 -49.1,-150.6 						"/>
					</g>
					<g>
						<rect x="-46.3" y="-150.6" fill="#B3B3B3" width="3.9" height="0.5"/>
						<polygon fill="#B3B3B3" points="-42.9,-147.9 -45.8,-147.9 -46.3,-150.1 -42.3,-150.1 						"/>
						<rect x="-45.1" y="-154.9" fill="#E6E6E6" width="1.5" height="4.3"/>
						<polygon fill="#CCCCCC" points="-42.9,-148.4 -45.8,-148.4 -46.3,-150.6 -42.3,-150.6 						"/>
					</g>
					<g>
						<rect x="-39.6" y="-150.6" fill="#B3B3B3" width="3.9" height="0.5"/>
						<polygon fill="#B3B3B3" points="-36.2,-147.9 -39.1,-147.9 -39.6,-150.1 -35.7,-150.1 						"/>
						<rect x="-38.4" y="-154.9" fill="#E6E6E6" width="1.5" height="4.3"/>
						<polygon fill="#CCCCCC" points="-36.2,-148.4 -39.1,-148.4 -39.6,-150.6 -35.7,-150.6 						"/>
					</g>
					<rect x="-54.3" y="-177.9" fill="#D9D6C3" width="20" height="18.8"/>
					<image width="21" height="2" xlink:href="3E3FCCEE.png"  transform="matrix(1 0 0 1 -55.1667 -160.073)">
					</image>
					<image width="21" height="2" xlink:href="3E3FCCE9.png"  transform="matrix(1 0 0 1 -55.1667 -164.073)">
					</image>
					<rect x="-54.3" y="-177.9" fill="#E1DECF" width="20" height="14.8"/>
					<image width="21" height="1" xlink:href="3E3FCCEA.png"  transform="matrix(1 0 0 1 -55.1667 -178.073)">
					</image>
					<rect x="-51.8" y="-154.9" fill="#CCCCCC" width="1.5" height="0.7"/>
					<rect x="-45.1" y="-154.9" fill="#CCCCCC" width="1.5" height="0.7"/>
					<rect x="-38.4" y="-154.9" fill="#CCCCCC" width="1.5" height="0.7"/>
					<rect x="-51.8" y="-151.3" fill="#CCCCCC" width="1.5" height="0.7"/>
					<rect x="-45.1" y="-151.3" fill="#CCCCCC" width="1.5" height="0.7"/>
					<rect x="-38.4" y="-151.3" fill="#CCCCCC" width="1.5" height="0.7"/>
					<ellipse fill="#D9D6C3" cx="-52.3" cy="-165.2" rx="0.9" ry="1"/>
				</g>
			</g>
		</g>
		<g transform="translate(100,191.673)">
			<g>
				<g>
					<rect x="-33.1" y="-177.9" fill="#C1BEAD" width="20.2" height="26.3"/>
					<image width="21" height="1" xlink:href="3E3FCCE8.png"  transform="matrix(1 0 0 1 -33.1667 -152.073)">
					</image>
					<g>
						<rect x="-31.7" y="-150.6" fill="#B3B3B3" width="4" height="0.5"/>
						<polygon fill="#B3B3B3" points="-28.3,-147.9 -31.2,-147.9 -31.7,-150.1 -27.8,-150.1 						"/>
						<rect x="-30.5" y="-154.9" fill="#E6E6E6" width="1.5" height="4.3"/>
						<polygon fill="#CCCCCC" points="-28.3,-148.4 -31.2,-148.4 -31.7,-150.6 -27.8,-150.6 						"/>
					</g>
					<g>
						<rect x="-25" y="-150.6" fill="#B3B3B3" width="4" height="0.5"/>
						<polygon fill="#B3B3B3" points="-21.5,-147.9 -24.5,-147.9 -25,-150.1 -21,-150.1 						"/>
						<rect x="-23.7" y="-154.9" fill="#E6E6E6" width="1.5" height="4.3"/>
						<polygon fill="#CCCCCC" points="-21.5,-148.4 -24.5,-148.4 -25,-150.6 -21,-150.6 						"/>
					</g>
					<g>
						<rect x="-18.2" y="-150.6" fill="#B3B3B3" width="4" height="0.5"/>
						<polygon fill="#B3B3B3" points="-14.8,-147.9 -17.7,-147.9 -18.2,-150.1 -14.3,-150.1 						"/>
						<rect x="-17" y="-154.9" fill="#E6E6E6" width="1.5" height="4.3"/>
						<polygon fill="#CCCCCC" points="-14.8,-148.4 -17.7,-148.4 -18.2,-150.6 -14.3,-150.6 						"/>
					</g>
					<rect x="-33.1" y="-177.9" fill="#D9D6C3" width="20.2" height="18.8"/>
					<image width="21" height="2" xlink:href="3E3FCCE6.png"  transform="matrix(1 0 0 1 -33.1667 -160.073)">
					</image>
					<image width="21" height="2" xlink:href="3E3FCCF9.png"  transform="matrix(1 0 0 1 -33.1667 -164.073)">
					</image>
					<rect x="-33.1" y="-177.9" fill="#E1DECF" width="20.2" height="14.8"/>
					<image width="21" height="1" xlink:href="3E3FCCFA.png"  transform="matrix(1 0 0 1 -33.1667 -178.073)">
					</image>
					<rect x="-30.5" y="-154.9" fill="#CCCCCC" width="1.5" height="0.7"/>
					<rect x="-23.7" y="-154.9" fill="#CCCCCC" width="1.5" height="0.7"/>
					<rect x="-17" y="-154.9" fill="#CCCCCC" width="1.5" height="0.7"/>
					<rect x="-30.5" y="-151.3" fill="#CCCCCC" width="1.5" height="0.7"/>
					<rect x="-23.7" y="-151.3" fill="#CCCCCC" width="1.5" height="0.7"/>
					<rect x="-17" y="-151.3" fill="#CCCCCC" width="1.5" height="0.7"/>
					<ellipse fill="#D9D6C3" cx="-31.1" cy="-165.2" rx="0.9" ry="1"/>
				</g>
			</g>
		</g>
		<g transform="translate(100,191.673)">
			<g>
				<g>
					<rect x="-11.6" y="-177.9" fill="#C1BEAD" width="20.5" height="26.3"/>
					<image width="22" height="1" xlink:href="3E3FCCF8.png"  transform="matrix(1 0 0 1 -12.1667 -152.073)">
					</image>
					<g>
						<rect x="-10.2" y="-150.6" fill="#B3B3B3" width="4" height="0.5"/>
						<polygon fill="#B3B3B3" points="-6.7,-147.9 -9.7,-147.9 -10.2,-150.1 -6.2,-150.1 						"/>
						<rect x="-8.9" y="-154.9" fill="#E6E6E6" width="1.5" height="4.3"/>
						<polygon fill="#CCCCCC" points="-6.7,-148.4 -9.7,-148.4 -10.2,-150.6 -6.2,-150.6 						"/>
					</g>
					<g>
						<rect x="-3.3" y="-150.6" fill="#B3B3B3" width="4" height="0.5"/>
						<polygon fill="#B3B3B3" points="0.2,-147.9 -2.8,-147.9 -3.3,-150.1 0.7,-150.1 						"/>
						<rect x="-2.1" y="-154.9" fill="#E6E6E6" width="1.5" height="4.3"/>
						<polygon fill="#CCCCCC" points="0.2,-148.4 -2.8,-148.4 -3.3,-150.6 0.7,-150.6 						"/>
					</g>
					<g>
						<rect x="3.5" y="-150.6" fill="#B3B3B3" width="4" height="0.5"/>
						<polygon fill="#B3B3B3" points="7,-147.9 4,-147.9 3.5,-150.1 7.5,-150.1 						"/>
						<rect x="4.7" y="-154.9" fill="#E6E6E6" width="1.5" height="4.3"/>
						<polygon fill="#CCCCCC" points="7,-148.4 4,-148.4 3.5,-150.6 7.5,-150.6 						"/>
					</g>
					<rect x="-11.6" y="-177.9" fill="#D9D6C3" width="20.5" height="18.8"/>
					<image width="22" height="2" xlink:href="3E3FCCFE.png"  transform="matrix(1 0 0 1 -12.1667 -160.073)">
					</image>
					<image width="22" height="2" xlink:href="3E3FCCFB.png"  transform="matrix(1 0 0 1 -12.1667 -164.073)">
					</image>
					<rect x="-11.6" y="-177.9" fill="#E1DECF" width="20.5" height="14.8"/>
					<image width="22" height="1" xlink:href="3E3FCD1D.png"  transform="matrix(1 0 0 1 -12.1667 -178.073)">
					</image>
					<rect x="-8.9" y="-154.9" fill="#CCCCCC" width="1.5" height="0.7"/>
					<rect x="-2.1" y="-154.9" fill="#CCCCCC" width="1.5" height="0.7"/>
					<rect x="4.7" y="-154.9" fill="#CCCCCC" width="1.5" height="0.7"/>
					<rect x="-8.9" y="-151.3" fill="#CCCCCC" width="1.5" height="0.7"/>
					<rect x="-2.1" y="-151.3" fill="#CCCCCC" width="1.5" height="0.7"/>
					<rect x="4.7" y="-151.3" fill="#CCCCCC" width="1.5" height="0.7"/>
					<ellipse fill="#D9D6C3" cx="-9.5" cy="-165.2" rx="0.9" ry="1"/>
				</g>
			</g>
		</g>
		<g transform="translate(100,191.673)">
			<g>
				<g>
					<rect x="10.2" y="-177.9" fill="#C1BEAD" width="20.5" height="26.3"/>
					<image width="21" height="1" xlink:href="3E3FCD1F.png"  transform="matrix(1 0 0 1 9.8333 -152.073)">
					</image>
					<g>
						<rect x="11.6" y="-150.6" fill="#B3B3B3" width="4" height="0.5"/>
						<polygon fill="#B3B3B3" points="15.1,-147.9 12.1,-147.9 11.6,-150.1 15.6,-150.1 						"/>
						<rect x="12.8" y="-154.9" fill="#E6E6E6" width="1.5" height="4.3"/>
						<polygon fill="#CCCCCC" points="15.1,-148.4 12.1,-148.4 11.6,-150.6 15.6,-150.6 						"/>
					</g>
					<g>
						<rect x="18.4" y="-150.6" fill="#B3B3B3" width="4" height="0.5"/>
						<polygon fill="#B3B3B3" points="21.9,-147.9 18.9,-147.9 18.4,-150.1 22.5,-150.1 						"/>
						<rect x="19.7" y="-154.9" fill="#E6E6E6" width="1.5" height="4.3"/>
						<polygon fill="#CCCCCC" points="21.9,-148.4 18.9,-148.4 18.4,-150.6 22.5,-150.6 						"/>
					</g>
					<g>
						<rect x="25.3" y="-150.6" fill="#B3B3B3" width="4" height="0.5"/>
						<polygon fill="#B3B3B3" points="28.8,-147.9 25.8,-147.9 25.3,-150.1 29.3,-150.1 						"/>
						<rect x="26.5" y="-154.9" fill="#E6E6E6" width="1.5" height="4.3"/>
						<polygon fill="#CCCCCC" points="28.8,-148.4 25.8,-148.4 25.3,-150.6 29.3,-150.6 						"/>
					</g>
					<rect x="10.2" y="-177.9" fill="#D9D6C3" width="20.5" height="18.8"/>
					<image width="21" height="2" xlink:href="3E3FCD1C.png"  transform="matrix(1 0 0 1 9.8333 -160.073)">
					</image>
					<image width="21" height="2" xlink:href="3E3FCD1B.png"  transform="matrix(1 0 0 1 9.8333 -164.073)">
					</image>
					<rect x="10.2" y="-177.9" fill="#E1DECF" width="20.5" height="14.8"/>
					<image width="21" height="1" xlink:href="3E3FCD15.png"  transform="matrix(1 0 0 1 9.8333 -178.073)">
					</image>
					<rect x="12.8" y="-154.9" fill="#CCCCCC" width="1.5" height="0.7"/>
					<rect x="19.7" y="-154.9" fill="#CCCCCC" width="1.5" height="0.7"/>
					<rect x="26.5" y="-154.9" fill="#CCCCCC" width="1.5" height="0.7"/>
					<rect x="12.8" y="-151.3" fill="#CCCCCC" width="1.5" height="0.7"/>
					<rect x="19.7" y="-151.3" fill="#CCCCCC" width="1.5" height="0.7"/>
					<rect x="26.5" y="-151.3" fill="#CCCCCC" width="1.5" height="0.7"/>
					<ellipse fill="#D9D6C3" cx="12.2" cy="-165.2" rx="0.9" ry="1"/>
				</g>
			</g>
		</g>
		<g transform="translate(100,191.673)">
			<g>
				<g>
					<rect x="32.1" y="-177.9" fill="#C1BEAD" width="20.5" height="26.3"/>
					<image width="21" height="1" xlink:href="3E3FCD17.png"  transform="matrix(1 0 0 1 31.8333 -152.073)">
					</image>
					<g>
						<rect x="33.4" y="-150.6" fill="#B3B3B3" width="4" height="0.5"/>
						<polygon fill="#B3B3B3" points="37,-147.9 34,-147.9 33.4,-150.1 37.5,-150.1 						"/>
						<rect x="34.7" y="-154.9" fill="#E6E6E6" width="1.5" height="4.3"/>
						<polygon fill="#CCCCCC" points="37,-148.4 34,-148.4 33.4,-150.6 37.5,-150.6 						"/>
					</g>
					<g>
						<rect x="40.3" y="-150.6" fill="#B3B3B3" width="4" height="0.5"/>
						<polygon fill="#B3B3B3" points="43.8,-147.9 40.8,-147.9 40.3,-150.1 44.3,-150.1 						"/>
						<rect x="41.6" y="-154.9" fill="#E6E6E6" width="1.5" height="4.3"/>
						<polygon fill="#CCCCCC" points="43.8,-148.4 40.8,-148.4 40.3,-150.6 44.3,-150.6 						"/>
					</g>
					<g>
						<rect x="47.1" y="-150.6" fill="#B3B3B3" width="4" height="0.5"/>
						<polygon fill="#B3B3B3" points="50.6,-147.9 47.6,-147.9 47.1,-150.1 51.2,-150.1 						"/>
						<rect x="48.4" y="-154.9" fill="#E6E6E6" width="1.5" height="4.3"/>
						<polygon fill="#CCCCCC" points="50.6,-148.4 47.6,-148.4 47.1,-150.6 51.2,-150.6 						"/>
					</g>
					<rect x="32.1" y="-177.9" fill="#D9D6C3" width="20.5" height="18.8"/>
					<image width="21" height="2" xlink:href="3E3FCD14.png"  transform="matrix(1 0 0 1 31.8333 -160.073)">
					</image>
					<image width="21" height="2" xlink:href="3E3FCD0B.png"  transform="matrix(1 0 0 1 31.8333 -164.073)">
					</image>
					<rect x="32.1" y="-177.9" fill="#E1DECF" width="20.5" height="14.8"/>
					<image width="21" height="1" xlink:href="3E3FCD0D.png"  transform="matrix(1 0 0 1 31.8333 -178.073)">
					</image>
					<rect x="34.7" y="-154.9" fill="#CCCCCC" width="1.5" height="0.7"/>
					<rect x="41.6" y="-154.9" fill="#CCCCCC" width="1.5" height="0.7"/>
					<rect x="48.4" y="-154.9" fill="#CCCCCC" width="1.5" height="0.7"/>
					<rect x="34.7" y="-151.3" fill="#CCCCCC" width="1.5" height="0.7"/>
					<rect x="41.6" y="-151.3" fill="#CCCCCC" width="1.5" height="0.7"/>
					<rect x="48.4" y="-151.3" fill="#CCCCCC" width="1.5" height="0.7"/>
					<ellipse fill="#D9D6C3" cx="34.1" cy="-165.2" rx="0.9" ry="1"/>
				</g>
			</g>
		</g>
		<g transform="translate(100,191.673)">
			<g>
				<g>
					<rect x="53.8" y="-177.9" fill="#C1BEAD" width="20.5" height="26.3"/>
					<image width="22" height="1" xlink:href="3E3FCD0F.png"  transform="matrix(1 0 0 1 52.8333 -152.073)">
					</image>
					<g>
						<rect x="55.1" y="-150.6" fill="#B3B3B3" width="4" height="0.5"/>
						<polygon fill="#B3B3B3" points="58.7,-147.9 55.6,-147.9 55.1,-150.1 59.2,-150.1 						"/>
						<rect x="56.4" y="-154.9" fill="#E6E6E6" width="1.5" height="4.3"/>
						<polygon fill="#CCCCCC" points="58.7,-148.4 55.6,-148.4 55.1,-150.6 59.2,-150.6 						"/>
					</g>
					<g>
						<rect x="62" y="-150.6" fill="#B3B3B3" width="4" height="0.5"/>
						<polygon fill="#B3B3B3" points="65.5,-147.9 62.5,-147.9 62,-150.1 66,-150.1 						"/>
						<rect x="63.3" y="-154.9" fill="#E6E6E6" width="1.5" height="4.3"/>
						<polygon fill="#CCCCCC" points="65.5,-148.4 62.5,-148.4 62,-150.6 66,-150.6 						"/>
					</g>
					<g>
						<rect x="68.8" y="-150.6" fill="#B3B3B3" width="4" height="0.5"/>
						<polygon fill="#B3B3B3" points="72.3,-147.9 69.3,-147.9 68.8,-150.1 72.8,-150.1 						"/>
						<rect x="70.1" y="-154.9" fill="#E6E6E6" width="1.5" height="4.3"/>
						<polygon fill="#CCCCCC" points="72.3,-148.4 69.3,-148.4 68.8,-150.6 72.8,-150.6 						"/>
					</g>
					<rect x="53.8" y="-177.9" fill="#D9D6C3" width="20.5" height="18.8"/>
					<image width="22" height="2" xlink:href="3E3FCD30.png"  transform="matrix(1 0 0 1 52.8333 -160.073)">
					</image>
					<image width="22" height="2" xlink:href="3E3FCD0E.png"  transform="matrix(1 0 0 1 52.8333 -164.073)">
					</image>
					<rect x="53.8" y="-177.9" fill="#E1DECF" width="20.5" height="14.8"/>
					<image width="22" height="1" xlink:href="3E3FCD10.png"  transform="matrix(1 0 0 1 52.8333 -178.073)">
					</image>
					<rect x="56.4" y="-154.9" fill="#CCCCCC" width="1.5" height="0.7"/>
					<rect x="63.3" y="-154.9" fill="#CCCCCC" width="1.5" height="0.7"/>
					<rect x="70.1" y="-154.9" fill="#CCCCCC" width="1.5" height="0.7"/>
					<rect x="56.4" y="-151.3" fill="#CCCCCC" width="1.5" height="0.7"/>
					<rect x="63.3" y="-151.3" fill="#CCCCCC" width="1.5" height="0.7"/>
					<rect x="70.1" y="-151.3" fill="#CCCCCC" width="1.5" height="0.7"/>
					<ellipse fill="#D9D6C3" cx="55.8" cy="-165.2" rx="0.9" ry="1"/>
				</g>
			</g>
		</g>
	</g>
	<line fill="#FFFFFF" stroke="#FFFFFF" stroke-width="0.25" stroke-miterlimit="10" x1="33.5" y1="7.7" x2="31.7" y2="4.5"/>
	<line fill="#FFFFFF" stroke="#FFFFFF" stroke-width="0.25" stroke-miterlimit="10" x1="37.3" y1="4.5" x2="40.9" y2="4.5"/>
	<line fill="#FFFFFF" stroke="#FFFFFF" stroke-width="0.25" stroke-miterlimit="10" x1="40.9" y1="8.4" x2="40.9" y2="4.4"/>
	<line fill="#FFFFFF" stroke="#FFFFFF" stroke-width="0.25" stroke-miterlimit="10" x1="26.5" y1="8.5" x2="26.5" y2="4.5"/>
	<line fill="#FFFFFF" stroke="#FFFFFF" stroke-width="0.25" stroke-miterlimit="10" x1="26.3" y1="4.5" x2="31.8" y2="4.5"/>
	<text transform="matrix(1 0 0 1 33.3557 5.6531)" fill="#FFFFFF" font-family="'ArialMT'" font-size="3px">K2</text>
	<text transform="matrix(1 0 0 1 51.8395 50.528)" fill="#FFFFFF" font-family="'ArialMT'" font-size="3px">GND</text>
	<text transform="matrix(1 0 0 1 117.1308 50.5278)" fill="#FFFFFF" font-family="'ArialMT'" font-size="3px">VCC</text>
	<text transform="matrix(1 0 0 1 60.3801 50.5276)" fill="#FFFFFF" font-family="'ArialMT'" font-size="3px">IN1</text>
	<text transform="matrix(1 0 0 1 67.6656 50.5282)" fill="#FFFFFF" font-family="'ArialMT'" font-size="3px">IN2</text>
	<text transform="matrix(1 0 0 1 74.3801 50.5284)" fill="#FFFFFF" font-family="'ArialMT'" font-size="3px">IN3</text>
	<text transform="matrix(1 0 0 1 81.7649 50.5287)" fill="#FFFFFF" font-family="'ArialMT'" font-size="3px">IN4</text>
	<text transform="matrix(1 0 0 1 89.0468 50.5289)" fill="#FFFFFF" font-family="'ArialMT'" font-size="3px">IN5</text>
	<text transform="matrix(1 0 0 1 96.2968 50.5292)" fill="#FFFFFF" font-family="'ArialMT'" font-size="3px">IN6</text>
	<text transform="matrix(1 0 0 1 103.4752 50.5278)" fill="#FFFFFF" font-family="'ArialMT'" font-size="3px">IN7</text>
	<text transform="matrix(1 0 0 1 110.7968 50.5294)" fill="#FFFFFF" font-family="'ArialMT'" font-size="3px">IN8</text>
	<g>
		<line fill="#FFFFFF" stroke="#FFFFFF" stroke-width="0.25" stroke-miterlimit="10" x1="55.2" y1="7.8" x2="53.3" y2="4.6"/>
		<line fill="#FFFFFF" stroke="#FFFFFF" stroke-width="0.25" stroke-miterlimit="10" x1="59" y1="4.6" x2="62.5" y2="4.6"/>
		<line fill="#FFFFFF" stroke="#FFFFFF" stroke-width="0.25" stroke-miterlimit="10" x1="62.5" y1="8.5" x2="62.5" y2="4.5"/>
		<line fill="#FFFFFF" stroke="#FFFFFF" stroke-width="0.25" stroke-miterlimit="10" x1="48.1" y1="8.7" x2="48.1" y2="4.6"/>
		<line fill="#FFFFFF" stroke="#FFFFFF" stroke-width="0.25" stroke-miterlimit="10" x1="48" y1="4.6" x2="53.4" y2="4.6"/>
		<text transform="matrix(1 0 0 1 55.0177 5.7781)" fill="#FFFFFF" font-family="'ArialMT'" font-size="3px">K3</text>
	</g>
	<g>
		<line fill="#FFFFFF" stroke="#FFFFFF" stroke-width="0.25" stroke-miterlimit="10" x1="76.8" y1="7.9" x2="75" y2="4.7"/>
		<line fill="#FFFFFF" stroke="#FFFFFF" stroke-width="0.25" stroke-miterlimit="10" x1="80.6" y1="4.7" x2="84.2" y2="4.7"/>
		<line fill="#FFFFFF" stroke="#FFFFFF" stroke-width="0.25" stroke-miterlimit="10" x1="84.2" y1="8.6" x2="84.2" y2="4.6"/>
		<line fill="#FFFFFF" stroke="#FFFFFF" stroke-width="0.25" stroke-miterlimit="10" x1="69.8" y1="8.7" x2="69.8" y2="4.7"/>
		<line fill="#FFFFFF" stroke="#FFFFFF" stroke-width="0.25" stroke-miterlimit="10" x1="69.6" y1="4.7" x2="75" y2="4.7"/>
		<text transform="matrix(1 0 0 1 76.6427 5.8406)" fill="#FFFFFF" font-family="'ArialMT'" font-size="3px">K4</text>
	</g>
	<g>
		<line fill="#FFFFFF" stroke="#FFFFFF" stroke-width="0.25" stroke-miterlimit="10" x1="98.4" y1="7.9" x2="96.6" y2="4.8"/>
		<line fill="#FFFFFF" stroke="#FFFFFF" stroke-width="0.25" stroke-miterlimit="10" x1="102.2" y1="4.8" x2="105.8" y2="4.8"/>
		<line fill="#FFFFFF" stroke="#FFFFFF" stroke-width="0.25" stroke-miterlimit="10" x1="105.8" y1="8.7" x2="105.8" y2="4.6"/>
		<line fill="#FFFFFF" stroke="#FFFFFF" stroke-width="0.25" stroke-miterlimit="10" x1="91.4" y1="8.8" x2="91.4" y2="4.8"/>
		<line fill="#FFFFFF" stroke="#FFFFFF" stroke-width="0.25" stroke-miterlimit="10" x1="91.3" y1="4.8" x2="96.7" y2="4.8"/>
		<text transform="matrix(1 0 0 1 98.2847 5.9031)" fill="#FFFFFF" font-family="'ArialMT'" font-size="3px">K5</text>
	</g>
	<g>
		<line fill="#FFFFFF" stroke="#FFFFFF" stroke-width="0.25" stroke-miterlimit="10" x1="120.2" y1="8" x2="118.4" y2="4.8"/>
		<line fill="#FFFFFF" stroke="#FFFFFF" stroke-width="0.25" stroke-miterlimit="10" x1="124" y1="4.8" x2="127.6" y2="4.8"/>
		<line fill="#FFFFFF" stroke="#FFFFFF" stroke-width="0.25" stroke-miterlimit="10" x1="127.6" y1="8.7" x2="127.6" y2="4.7"/>
		<line fill="#FFFFFF" stroke="#FFFFFF" stroke-width="0.25" stroke-miterlimit="10" x1="113.2" y1="8.9" x2="113.2" y2="4.8"/>
		<line fill="#FFFFFF" stroke="#FFFFFF" stroke-width="0.25" stroke-miterlimit="10" x1="113.1" y1="4.8" x2="118.5" y2="4.8"/>
		<text transform="matrix(1 0 0 1 120.0602 5.9656)" fill="#FFFFFF" font-family="'ArialMT'" font-size="3px">K6</text>
	</g>
	<g>
		<line fill="#FFFFFF" stroke="#FFFFFF" stroke-width="0.25" stroke-miterlimit="10" x1="141.9" y1="7.8" x2="140" y2="4.6"/>
		<line fill="#FFFFFF" stroke="#FFFFFF" stroke-width="0.25" stroke-miterlimit="10" x1="145.7" y1="4.6" x2="149.2" y2="4.6"/>
		<line fill="#FFFFFF" stroke="#FFFFFF" stroke-width="0.25" stroke-miterlimit="10" x1="149.2" y1="8.5" x2="149.2" y2="4.5"/>
		<line fill="#FFFFFF" stroke="#FFFFFF" stroke-width="0.25" stroke-miterlimit="10" x1="134.8" y1="8.7" x2="134.8" y2="4.6"/>
		<line fill="#FFFFFF" stroke="#FFFFFF" stroke-width="0.25" stroke-miterlimit="10" x1="134.7" y1="4.6" x2="140.1" y2="4.6"/>
		<text transform="matrix(1 0 0 1 141.7222 5.7781)" fill="#FFFFFF" font-family="'ArialMT'" font-size="3px">K7</text>
	</g>
	<g>
		<line fill="#FFFFFF" stroke="#FFFFFF" stroke-width="0.25" stroke-miterlimit="10" x1="163.5" y1="7.7" x2="161.7" y2="4.6"/>
		<line fill="#FFFFFF" stroke="#FFFFFF" stroke-width="0.25" stroke-miterlimit="10" x1="167.3" y1="4.6" x2="170.9" y2="4.6"/>
		<line fill="#FFFFFF" stroke="#FFFFFF" stroke-width="0.25" stroke-miterlimit="10" x1="170.9" y1="8.5" x2="170.9" y2="4.5"/>
		<line fill="#FFFFFF" stroke="#FFFFFF" stroke-width="0.25" stroke-miterlimit="10" x1="156.5" y1="8.6" x2="156.5" y2="4.6"/>
		<line fill="#FFFFFF" stroke="#FFFFFF" stroke-width="0.25" stroke-miterlimit="10" x1="156.3" y1="4.6" x2="161.8" y2="4.6"/>
		<text transform="matrix(1 0 0 1 163.3472 5.7156)" fill="#FFFFFF" font-family="'ArialMT'" font-size="3px">K8</text>
	</g>
	<g>
		<line fill="#FFFFFF" stroke="#FFFFFF" stroke-width="0.25" stroke-miterlimit="10" x1="11.7" y1="7.7" x2="9.8" y2="4.6"/>
		<line fill="#FFFFFF" stroke="#FFFFFF" stroke-width="0.25" stroke-miterlimit="10" x1="15.5" y1="4.6" x2="19" y2="4.6"/>
		<line fill="#FFFFFF" stroke="#FFFFFF" stroke-width="0.25" stroke-miterlimit="10" x1="19" y1="8.5" x2="19" y2="4.5"/>
		<line fill="#FFFFFF" stroke="#FFFFFF" stroke-width="0.25" stroke-miterlimit="10" x1="4.6" y1="8.6" x2="4.6" y2="4.6"/>
		<line fill="#FFFFFF" stroke="#FFFFFF" stroke-width="0.25" stroke-miterlimit="10" x1="4.5" y1="4.6" x2="9.9" y2="4.6"/>
		<text transform="matrix(1 0 0 1 11.5177 5.7156)" fill="#FFFFFF" font-family="'ArialMT'" font-size="3px">K1</text>
	</g>
	<g transform="translate(134.035,34.05)">
		<g>
			<rect id="connector5pin" x="-130.6" y="-26.6" fill="#8D8C8C" width="2.3" height="2.3"/>
			<rect x="-130" y="-26" fill="#8C8663" width="1.2" height="1.2"/>
			<polygon fill="#B8AF82" points="-130.6,-24.3 -130,-24.9 -130,-26.1 -130.6,-26.6 			"/>
			<polygon fill="#80795B" points="-128.8,-26 -130,-26 -130.6,-26.6 -128.3,-26.6 			"/>
			<polygon fill="#5E5B43" points="-128.8,-24.9 -128.8,-26 -128.3,-26.6 -128.3,-24.3 			"/>
			<polygon fill="#9A916C" points="-130.6,-24.3 -130,-24.9 -128.8,-24.9 -128.3,-24.3 			"/>
		</g>
	</g>
	<g transform="translate(234.035,34.05)">
		<g>
			<rect id="connector4pin" x="-223.4" y="-26.6" fill="#8D8C8C" width="2.3" height="2.3"/>
			<rect x="-222.8" y="-26" fill="#8C8663" width="1.2" height="1.2"/>
			<polygon fill="#B8AF82" points="-223.4,-24.3 -222.8,-24.9 -222.8,-26.1 -223.4,-26.6 			"/>
			<polygon fill="#80795B" points="-221.6,-26 -222.8,-26 -223.4,-26.6 -221.1,-26.6 			"/>
			<polygon fill="#5E5B43" points="-221.6,-24.9 -221.6,-26 -221.1,-26.6 -221.1,-24.3 			"/>
			<polygon fill="#9A916C" points="-223.4,-24.3 -222.8,-24.9 -221.6,-24.9 -221.1,-24.3 			"/>
		</g>
	</g>
	<g transform="translate(334.035,34.05)">
		<g>
			<rect id="connector3pin" x="-316.2" y="-26.6" fill="#8D8C8C" width="2.3" height="2.3"/>
			<rect x="-315.6" y="-26" fill="#8C8663" width="1.2" height="1.2"/>
			<polygon fill="#B8AF82" points="-316.2,-24.3 -315.6,-24.9 -315.6,-26.1 -316.2,-26.6 			"/>
			<polygon fill="#80795B" points="-314.4,-26 -315.6,-26 -316.2,-26.6 -313.9,-26.6 			"/>
			<polygon fill="#5E5B43" points="-314.4,-24.9 -314.4,-26 -313.9,-26.6 -313.9,-24.3 			"/>
			<polygon fill="#9A916C" points="-316.2,-24.3 -315.6,-24.9 -314.4,-24.9 -313.9,-24.3 			"/>
		</g>
	</g>
	<g transform="translate(134.035,34.05)">
		<g>
			<rect id="connector5pin_9_" x="-108.8" y="-26.6" fill="#8D8C8C" width="2.3" height="2.3"/>
			<rect x="-108.2" y="-26" fill="#8C8663" width="1.2" height="1.2"/>
			<polygon fill="#B8AF82" points="-108.8,-24.3 -108.2,-24.8 -108.2,-26.1 -108.8,-26.6 			"/>
			<polygon fill="#80795B" points="-107,-26 -108.2,-26 -108.8,-26.6 -106.5,-26.6 			"/>
			<polygon fill="#5E5B43" points="-107,-24.8 -107,-26 -106.5,-26.6 -106.5,-24.3 			"/>
			<polygon fill="#9A916C" points="-108.8,-24.3 -108.2,-24.8 -107,-24.8 -106.5,-24.3 			"/>
		</g>
	</g>
	<g transform="translate(234.035,34.05)">
		<g>
			<rect id="connector4pin_9_" x="-201.6" y="-26.6" fill="#8D8C8C" width="2.3" height="2.3"/>
			<rect x="-201" y="-26" fill="#8C8663" width="1.2" height="1.2"/>
			<polygon fill="#B8AF82" points="-201.6,-24.3 -201,-24.8 -201,-26.1 -201.6,-26.6 			"/>
			<polygon fill="#80795B" points="-199.8,-26 -201,-26 -201.6,-26.6 -199.3,-26.6 			"/>
			<polygon fill="#5E5B43" points="-199.8,-24.8 -199.8,-26 -199.3,-26.6 -199.3,-24.3 			"/>
			<polygon fill="#9A916C" points="-201.6,-24.3 -201,-24.8 -199.8,-24.8 -199.3,-24.3 			"/>
		</g>
	</g>
	<g transform="translate(334.035,34.05)">
		<g>
			<rect id="connector3pin_9_" x="-294.4" y="-26.6" fill="#8D8C8C" width="2.3" height="2.3"/>
			<rect x="-293.8" y="-26" fill="#8C8663" width="1.2" height="1.2"/>
			<polygon fill="#B8AF82" points="-294.4,-24.3 -293.8,-24.8 -293.8,-26.1 -294.4,-26.6 			"/>
			<polygon fill="#80795B" points="-292.6,-26 -293.8,-26 -294.4,-26.6 -292.1,-26.6 			"/>
			<polygon fill="#5E5B43" points="-292.6,-24.8 -292.6,-26 -292.1,-26.6 -292.1,-24.3 			"/>
			<polygon fill="#9A916C" points="-294.4,-24.3 -293.8,-24.8 -292.6,-24.8 -292.1,-24.3 			"/>
		</g>
	</g>
	<g transform="translate(134.035,34.05)">
		<g>
			<rect id="connector5pin_1_" x="-87.1" y="-26.6" fill="#8D8C8C" width="2.3" height="2.3"/>
			<rect x="-86.6" y="-26" fill="#8C8663" width="1.2" height="1.2"/>
			<polygon fill="#B8AF82" points="-87.1,-24.3 -86.6,-24.8 -86.6,-26.1 -87.1,-26.6 			"/>
			<polygon fill="#80795B" points="-85.4,-26 -86.5,-26 -87.1,-26.6 -84.8,-26.6 			"/>
			<polygon fill="#5E5B43" points="-85.4,-24.8 -85.4,-26 -84.8,-26.6 -84.8,-24.3 			"/>
			<polygon fill="#9A916C" points="-87.1,-24.3 -86.5,-24.8 -85.4,-24.8 -84.8,-24.3 			"/>
		</g>
	</g>
	<g transform="translate(234.035,34.05)">
		<g>
			<rect id="connector4pin_1_" x="-179.9" y="-26.6" fill="#8D8C8C" width="2.3" height="2.3"/>
			<rect x="-179.4" y="-26" fill="#8C8663" width="1.2" height="1.2"/>
			<polygon fill="#B8AF82" points="-179.9,-24.3 -179.4,-24.8 -179.4,-26.1 -179.9,-26.6 			"/>
			<polygon fill="#80795B" points="-178.2,-26 -179.3,-26 -179.9,-26.6 -177.6,-26.6 			"/>
			<polygon fill="#5E5B43" points="-178.2,-24.8 -178.2,-26 -177.6,-26.6 -177.6,-24.3 			"/>
			<polygon fill="#9A916C" points="-179.9,-24.3 -179.3,-24.8 -178.2,-24.8 -177.6,-24.3 			"/>
		</g>
	</g>
	<g transform="translate(334.035,34.05)">
		<g>
			<rect id="connector3pin_1_" x="-272.7" y="-26.6" fill="#8D8C8C" width="2.3" height="2.3"/>
			<rect x="-272.2" y="-26" fill="#8C8663" width="1.2" height="1.2"/>
			<polygon fill="#B8AF82" points="-272.7,-24.3 -272.2,-24.8 -272.2,-26.1 -272.7,-26.6 			"/>
			<polygon fill="#80795B" points="-271,-26 -272.1,-26 -272.7,-26.6 -270.4,-26.6 			"/>
			<polygon fill="#5E5B43" points="-271,-24.8 -271,-26 -270.4,-26.6 -270.4,-24.3 			"/>
			<polygon fill="#9A916C" points="-272.7,-24.3 -272.1,-24.8 -271,-24.8 -270.4,-24.3 			"/>
		</g>
	</g>
	<g transform="translate(134.035,34.05)">
		<g>
			<rect id="connector5pin_2_" x="-65.5" y="-26.6" fill="#8D8C8C" width="2.3" height="2.3"/>
			<rect x="-64.9" y="-26" fill="#8C8663" width="1.2" height="1.2"/>
			<polygon fill="#B8AF82" points="-65.5,-24.3 -64.9,-24.9 -64.9,-26.1 -65.5,-26.6 			"/>
			<polygon fill="#80795B" points="-63.7,-26 -64.9,-26 -65.5,-26.6 -63.2,-26.6 			"/>
			<polygon fill="#5E5B43" points="-63.7,-24.9 -63.7,-26 -63.2,-26.6 -63.2,-24.3 			"/>
			<polygon fill="#9A916C" points="-65.5,-24.3 -64.9,-24.9 -63.7,-24.9 -63.2,-24.3 			"/>
		</g>
	</g>
	<g transform="translate(234.035,34.05)">
		<g>
			<rect id="connector4pin_2_" x="-158.3" y="-26.6" fill="#8D8C8C" width="2.3" height="2.3"/>
			<rect x="-157.7" y="-26" fill="#8C8663" width="1.2" height="1.2"/>
			<polygon fill="#B8AF82" points="-158.3,-24.3 -157.7,-24.9 -157.7,-26.1 -158.3,-26.6 			"/>
			<polygon fill="#80795B" points="-156.5,-26 -157.7,-26 -158.3,-26.6 -156,-26.6 			"/>
			<polygon fill="#5E5B43" points="-156.5,-24.9 -156.5,-26 -156,-26.6 -156,-24.3 			"/>
			<polygon fill="#9A916C" points="-158.3,-24.3 -157.7,-24.9 -156.5,-24.9 -156,-24.3 			"/>
		</g>
	</g>
	<g transform="translate(334.035,34.05)">
		<g>
			<rect id="connector3pin_2_" x="-251.1" y="-26.6" fill="#8D8C8C" width="2.3" height="2.3"/>
			<rect x="-250.5" y="-26" fill="#8C8663" width="1.2" height="1.2"/>
			<polygon fill="#B8AF82" points="-251.1,-24.3 -250.5,-24.9 -250.5,-26.1 -251.1,-26.6 			"/>
			<polygon fill="#80795B" points="-249.3,-26 -250.5,-26 -251.1,-26.6 -248.8,-26.6 			"/>
			<polygon fill="#5E5B43" points="-249.3,-24.9 -249.3,-26 -248.8,-26.6 -248.8,-24.3 			"/>
			<polygon fill="#9A916C" points="-251.1,-24.3 -250.5,-24.9 -249.3,-24.9 -248.8,-24.3 			"/>
		</g>
	</g>
	<g transform="translate(134.035,34.05)">
		<g>
			<rect id="connector5pin_6_" x="-43.8" y="-26.6" fill="#8D8C8C" width="2.3" height="2.3"/>
			<rect x="-43.3" y="-26" fill="#8C8663" width="1.2" height="1.2"/>
			<polygon fill="#B8AF82" points="-43.8,-24.3 -43.3,-24.8 -43.3,-26.1 -43.8,-26.6 			"/>
			<polygon fill="#80795B" points="-42.1,-26 -43.3,-26 -43.8,-26.6 -41.5,-26.6 			"/>
			<polygon fill="#5E5B43" points="-42.1,-24.8 -42.1,-26 -41.5,-26.6 -41.5,-24.3 			"/>
			<polygon fill="#9A916C" points="-43.8,-24.3 -43.3,-24.8 -42.1,-24.8 -41.5,-24.3 			"/>
		</g>
	</g>
	<g transform="translate(234.035,34.05)">
		<g>
			<rect id="connector4pin_6_" x="-136.6" y="-26.6" fill="#8D8C8C" width="2.3" height="2.3"/>
			<rect x="-136.1" y="-26" fill="#8C8663" width="1.2" height="1.2"/>
			<polygon fill="#B8AF82" points="-136.6,-24.3 -136.1,-24.8 -136.1,-26.1 -136.6,-26.6 			"/>
			<polygon fill="#80795B" points="-134.9,-26 -136.1,-26 -136.6,-26.6 -134.3,-26.6 			"/>
			<polygon fill="#5E5B43" points="-134.9,-24.8 -134.9,-26 -134.3,-26.6 -134.3,-24.3 			"/>
			<polygon fill="#9A916C" points="-136.6,-24.3 -136.1,-24.8 -134.9,-24.8 -134.3,-24.3 			"/>
		</g>
	</g>
	<g transform="translate(334.035,34.05)">
		<g>
			<rect id="connector3pin_6_" x="-229.4" y="-26.6" fill="#8D8C8C" width="2.3" height="2.3"/>
			<rect x="-228.9" y="-26" fill="#8C8663" width="1.2" height="1.2"/>
			<polygon fill="#B8AF82" points="-229.4,-24.3 -228.9,-24.8 -228.9,-26.1 -229.4,-26.6 			"/>
			<polygon fill="#80795B" points="-227.7,-26 -228.9,-26 -229.4,-26.6 -227.1,-26.6 			"/>
			<polygon fill="#5E5B43" points="-227.7,-24.8 -227.7,-26 -227.1,-26.6 -227.1,-24.3 			"/>
			<polygon fill="#9A916C" points="-229.4,-24.3 -228.9,-24.8 -227.7,-24.8 -227.1,-24.3 			"/>
		</g>
	</g>
	<g transform="translate(134.035,34.05)">
		<g>
			<rect id="connector5pin_5_" x="-22.1" y="-26.6" fill="#8D8C8C" width="2.3" height="2.3"/>
			<rect x="-21.5" y="-26" fill="#8C8663" width="1.2" height="1.2"/>
			<polygon fill="#B8AF82" points="-22.1,-24.3 -21.5,-24.8 -21.5,-26.1 -22.1,-26.6 			"/>
			<polygon fill="#80795B" points="-20.3,-26 -21.5,-26 -22.1,-26.6 -19.8,-26.6 			"/>
			<polygon fill="#5E5B43" points="-20.3,-24.8 -20.3,-26 -19.8,-26.6 -19.8,-24.3 			"/>
			<polygon fill="#9A916C" points="-22.1,-24.3 -21.5,-24.8 -20.3,-24.8 -19.8,-24.3 			"/>
		</g>
	</g>
	<g transform="translate(234.035,34.05)">
		<g>
			<rect id="connector4pin_5_" x="-114.9" y="-26.6" fill="#8D8C8C" width="2.3" height="2.3"/>
			<rect x="-114.3" y="-26" fill="#8C8663" width="1.2" height="1.2"/>
			<polygon fill="#B8AF82" points="-114.9,-24.3 -114.3,-24.8 -114.3,-26.1 -114.9,-26.6 			"/>
			<polygon fill="#80795B" points="-113.1,-26 -114.3,-26 -114.9,-26.6 -112.6,-26.6 			"/>
			<polygon fill="#5E5B43" points="-113.1,-24.8 -113.1,-26 -112.6,-26.6 -112.6,-24.3 			"/>
			<polygon fill="#9A916C" points="-114.9,-24.3 -114.3,-24.8 -113.1,-24.8 -112.6,-24.3 			"/>
		</g>
	</g>
	<g transform="translate(334.035,34.05)">
		<g>
			<rect id="connector3pin_5_" x="-207.7" y="-26.6" fill="#8D8C8C" width="2.3" height="2.3"/>
			<rect x="-207.1" y="-26" fill="#8C8663" width="1.2" height="1.2"/>
			<polygon fill="#B8AF82" points="-207.7,-24.3 -207.1,-24.8 -207.1,-26.1 -207.7,-26.6 			"/>
			<polygon fill="#80795B" points="-205.9,-26 -207.1,-26 -207.7,-26.6 -205.4,-26.6 			"/>
			<polygon fill="#5E5B43" points="-205.9,-24.8 -205.9,-26 -205.4,-26.6 -205.4,-24.3 			"/>
			<polygon fill="#9A916C" points="-207.7,-24.3 -207.1,-24.8 -205.9,-24.8 -205.4,-24.3 			"/>
		</g>
	</g>
	<g transform="translate(134.035,34.05)">
		<g>
			<rect id="connector5pin_4_" x="-0.4" y="-26.6" fill="#8D8C8C" width="2.3" height="2.3"/>
			<rect x="0.2" y="-26" fill="#8C8663" width="1.2" height="1.2"/>
			<polygon fill="#B8AF82" points="-0.4,-24.3 0.2,-24.8 0.2,-26.1 -0.4,-26.6 			"/>
			<polygon fill="#80795B" points="1.3,-26 0.2,-26 -0.4,-26.6 1.9,-26.6 			"/>
			<polygon fill="#5E5B43" points="1.3,-24.8 1.3,-26 1.9,-26.6 1.9,-24.3 			"/>
			<polygon fill="#9A916C" points="-0.4,-24.3 0.2,-24.8 1.3,-24.8 1.9,-24.3 			"/>
		</g>
	</g>
	<g transform="translate(234.035,34.05)">
		<g>
			<rect id="connector4pin_4_" x="-93.2" y="-26.6" fill="#8D8C8C" width="2.3" height="2.3"/>
			<rect x="-92.6" y="-26" fill="#8C8663" width="1.2" height="1.2"/>
			<polygon fill="#B8AF82" points="-93.2,-24.3 -92.6,-24.8 -92.6,-26.1 -93.2,-26.6 			"/>
			<polygon fill="#80795B" points="-91.5,-26 -92.6,-26 -93.2,-26.6 -90.9,-26.6 			"/>
			<polygon fill="#5E5B43" points="-91.5,-24.8 -91.5,-26 -90.9,-26.6 -90.9,-24.3 			"/>
			<polygon fill="#9A916C" points="-93.2,-24.3 -92.6,-24.8 -91.5,-24.8 -90.9,-24.3 			"/>
		</g>
	</g>
	<g transform="translate(334.035,34.05)">
		<g>
			<rect id="connector3pin_4_" x="-186" y="-26.6" fill="#8D8C8C" width="2.3" height="2.3"/>
			<rect x="-185.4" y="-26" fill="#8C8663" width="1.2" height="1.2"/>
			<polygon fill="#B8AF82" points="-186,-24.3 -185.4,-24.8 -185.4,-26.1 -186,-26.6 			"/>
			<polygon fill="#80795B" points="-184.3,-26 -185.4,-26 -186,-26.6 -183.7,-26.6 			"/>
			<polygon fill="#5E5B43" points="-184.3,-24.8 -184.3,-26 -183.7,-26.6 -183.7,-24.3 			"/>
			<polygon fill="#9A916C" points="-186,-24.3 -185.4,-24.8 -184.3,-24.8 -183.7,-24.3 			"/>
		</g>
	</g>
	<g transform="translate(134.035,34.05)">
		<g>
			<rect id="connector5pin_3_" x="21.2" y="-26.6" fill="#8D8C8C" width="2.3" height="2.3"/>
			<rect x="21.8" y="-26" fill="#8C8663" width="1.2" height="1.2"/>
			<polygon fill="#B8AF82" points="21.2,-24.3 21.8,-24.8 21.8,-26.1 21.2,-26.6 			"/>
			<polygon fill="#80795B" points="23,-26 21.8,-26 21.2,-26.6 23.5,-26.6 			"/>
			<polygon fill="#5E5B43" points="23,-24.8 23,-26 23.5,-26.6 23.5,-24.3 			"/>
			<polygon fill="#9A916C" points="21.2,-24.3 21.8,-24.8 23,-24.8 23.5,-24.3 			"/>
		</g>
	</g>
	<g transform="translate(234.035,34.05)">
		<g>
			<rect id="connector4pin_3_" x="-71.6" y="-26.6" fill="#8D8C8C" width="2.3" height="2.3"/>
			<rect x="-71" y="-26" fill="#8C8663" width="1.2" height="1.2"/>
			<polygon fill="#B8AF82" points="-71.6,-24.3 -71,-24.8 -71,-26.1 -71.6,-26.6 			"/>
			<polygon fill="#80795B" points="-69.8,-26 -71,-26 -71.6,-26.6 -69.3,-26.6 			"/>
			<polygon fill="#5E5B43" points="-69.8,-24.8 -69.8,-26 -69.3,-26.6 -69.3,-24.3 			"/>
			<polygon fill="#9A916C" points="-71.6,-24.3 -71,-24.8 -69.8,-24.8 -69.3,-24.3 			"/>
		</g>
	</g>
	<g transform="translate(334.035,34.05)">
		<g>
			<rect id="connector3pin_3_" x="-164.4" y="-26.6" fill="#8D8C8C" width="2.3" height="2.3"/>
			<rect x="-163.8" y="-26" fill="#8C8663" width="1.2" height="1.2"/>
			<polygon fill="#B8AF82" points="-164.4,-24.3 -163.8,-24.8 -163.8,-26.1 -164.4,-26.6 			"/>
			<polygon fill="#80795B" points="-162.6,-26 -163.8,-26 -164.4,-26.6 -162.1,-26.6 			"/>
			<polygon fill="#5E5B43" points="-162.6,-24.8 -162.6,-26 -162.1,-26.6 -162.1,-24.3 			"/>
			<polygon fill="#9A916C" points="-164.4,-24.3 -163.8,-24.8 -162.6,-24.8 -162.1,-24.3 			"/>
		</g>
	</g>
	<g transform="translate(234.035,34.05)">
		<g>
			<rect id="connector4pin_11_" x="-179.9" y="17.6" fill="#8D8C8C" width="2.3" height="2.3"/>
			<rect x="-179.3" y="18.1" fill="#8C8663" width="1.2" height="1.2"/>
			<polygon fill="#B8AF82" points="-179.9,19.9 -179.3,19.3 -179.3,18.1 -179.9,17.6 			"/>
			<polygon fill="#80795B" points="-178.1,18.1 -179.3,18.1 -179.9,17.6 -177.6,17.6 			"/>
			<polygon fill="#5E5B43" points="-178.1,19.3 -178.1,18.1 -177.6,17.6 -177.6,19.9 			"/>
			<polygon fill="#9A916C" points="-179.9,19.9 -179.3,19.3 -178.1,19.3 -177.6,19.9 			"/>
		</g>
	</g>
	<g transform="translate(334.035,34.05)">
		<g>
			<rect id="connector3pin_10_" x="-272.7" y="17.6" fill="#8D8C8C" width="2.3" height="2.3"/>
			<rect x="-272.1" y="18.1" fill="#8C8663" width="1.2" height="1.2"/>
			<polygon fill="#B8AF82" points="-272.7,19.9 -272.1,19.3 -272.1,18.1 -272.7,17.6 			"/>
			<polygon fill="#80795B" points="-270.9,18.1 -272.1,18.1 -272.7,17.6 -270.4,17.6 			"/>
			<polygon fill="#5E5B43" points="-270.9,19.3 -270.9,18.1 -270.4,17.6 -270.4,19.9 			"/>
			<polygon fill="#9A916C" points="-272.7,19.9 -272.1,19.3 -270.9,19.3 -270.4,19.9 			"/>
		</g>
	</g>
	<g transform="translate(134.035,34.05)">
		<g>
			<rect id="connector5pin_10_" x="-65.4" y="17.6" fill="#8D8C8C" width="2.3" height="2.3"/>
			<rect x="-64.9" y="18.1" fill="#8C8663" width="1.2" height="1.2"/>
			<polygon fill="#B8AF82" points="-65.4,19.9 -64.9,19.3 -64.9,18.1 -65.4,17.6 			"/>
			<polygon fill="#80795B" points="-63.7,18.1 -64.9,18.1 -65.4,17.6 -63.1,17.6 			"/>
			<polygon fill="#5E5B43" points="-63.7,19.3 -63.7,18.1 -63.1,17.6 -63.1,19.9 			"/>
			<polygon fill="#9A916C" points="-65.4,19.9 -64.9,19.3 -63.7,19.3 -63.1,19.9 			"/>
		</g>
	</g>
	<g transform="translate(234.035,34.05)">
		<g>
			<rect id="connector4pin_10_" x="-158.2" y="17.6" fill="#8D8C8C" width="2.3" height="2.3"/>
			<rect x="-157.7" y="18.1" fill="#8C8663" width="1.2" height="1.2"/>
			<polygon fill="#B8AF82" points="-158.2,19.9 -157.7,19.3 -157.7,18.1 -158.2,17.6 			"/>
			<polygon fill="#80795B" points="-156.5,18.1 -157.7,18.1 -158.2,17.6 -155.9,17.6 			"/>
			<polygon fill="#5E5B43" points="-156.5,19.3 -156.5,18.1 -155.9,17.6 -155.9,19.9 			"/>
			<polygon fill="#9A916C" points="-158.2,19.9 -157.7,19.3 -156.5,19.3 -155.9,19.9 			"/>
		</g>
	</g>
	<g transform="translate(334.035,34.05)">
		<g>
			<rect id="connector3pin_8_" x="-251" y="17.6" fill="#8D8C8C" width="2.3" height="2.3"/>
			<rect x="-250.5" y="18.1" fill="#8C8663" width="1.2" height="1.2"/>
			<polygon fill="#B8AF82" points="-251,19.9 -250.5,19.3 -250.5,18.1 -251,17.6 			"/>
			<polygon fill="#80795B" points="-249.3,18.1 -250.5,18.1 -251,17.6 -248.7,17.6 			"/>
			<polygon fill="#5E5B43" points="-249.3,19.3 -249.3,18.1 -248.7,17.6 -248.7,19.9 			"/>
			<polygon fill="#9A916C" points="-251,19.9 -250.5,19.3 -249.3,19.3 -248.7,19.9 			"/>
		</g>
	</g>
	<g transform="translate(134.035,34.05)">
		<g>
			<rect id="connector5pin_8_" x="-43.8" y="17.6" fill="#8D8C8C" width="2.3" height="2.3"/>
			<rect x="-43.2" y="18.2" fill="#8C8663" width="1.2" height="1.2"/>
			<polygon fill="#B8AF82" points="-43.8,19.9 -43.2,19.3 -43.2,18.1 -43.8,17.6 			"/>
			<polygon fill="#80795B" points="-42.1,18.2 -43.2,18.2 -43.8,17.6 -41.5,17.6 			"/>
			<polygon fill="#5E5B43" points="-42.1,19.3 -42.1,18.2 -41.5,17.6 -41.5,19.9 			"/>
			<polygon fill="#9A916C" points="-43.8,19.9 -43.2,19.3 -42.1,19.3 -41.5,19.9 			"/>
		</g>
	</g>
	<g transform="translate(234.035,34.05)">
		<g>
			<rect id="connector4pin_8_" x="-136.6" y="17.6" fill="#8D8C8C" width="2.3" height="2.3"/>
			<rect x="-136" y="18.2" fill="#8C8663" width="1.2" height="1.2"/>
			<polygon fill="#B8AF82" points="-136.6,19.9 -136,19.3 -136,18.1 -136.6,17.6 			"/>
			<polygon fill="#80795B" points="-134.9,18.2 -136,18.2 -136.6,17.6 -134.3,17.6 			"/>
			<polygon fill="#5E5B43" points="-134.9,19.3 -134.9,18.2 -134.3,17.6 -134.3,19.9 			"/>
			<polygon fill="#9A916C" points="-136.6,19.9 -136,19.3 -134.9,19.3 -134.3,19.9 			"/>
		</g>
	</g>
	<g transform="translate(334.035,34.05)">
		<g>
			<rect id="connector3pin_7_" x="-229.4" y="17.6" fill="#8D8C8C" width="2.3" height="2.3"/>
			<rect x="-228.8" y="18.2" fill="#8C8663" width="1.2" height="1.2"/>
			<polygon fill="#B8AF82" points="-229.4,19.9 -228.8,19.3 -228.8,18.1 -229.4,17.6 			"/>
			<polygon fill="#80795B" points="-227.7,18.2 -228.8,18.2 -229.4,17.6 -227.1,17.6 			"/>
			<polygon fill="#5E5B43" points="-227.7,19.3 -227.7,18.2 -227.1,17.6 -227.1,19.9 			"/>
			<polygon fill="#9A916C" points="-229.4,19.9 -228.8,19.3 -227.7,19.3 -227.1,19.9 			"/>
		</g>
	</g>
	<g transform="translate(134.035,34.05)">
		<g>
			<rect id="connector5pin_7_" x="-22" y="17.6" fill="#8D8C8C" width="2.3" height="2.3"/>
			<rect x="-21.5" y="18.2" fill="#8C8663" width="1.2" height="1.2"/>
			<polygon fill="#B8AF82" points="-22,19.9 -21.5,19.3 -21.5,18.1 -22,17.6 			"/>
			<polygon fill="#80795B" points="-20.3,18.2 -21.5,18.2 -22,17.6 -19.7,17.6 			"/>
			<polygon fill="#5E5B43" points="-20.3,19.3 -20.3,18.2 -19.7,17.6 -19.7,19.9 			"/>
			<polygon fill="#9A916C" points="-22,19.9 -21.5,19.3 -20.3,19.3 -19.7,19.9 			"/>
		</g>
	</g>
	<g transform="translate(234.035,34.05)">
		<g>
			<rect id="connector4pin_7_" x="-114.8" y="17.6" fill="#8D8C8C" width="2.3" height="2.3"/>
			<rect x="-114.3" y="18.2" fill="#8C8663" width="1.2" height="1.2"/>
			<polygon fill="#B8AF82" points="-114.8,19.9 -114.3,19.3 -114.3,18.1 -114.8,17.6 			"/>
			<polygon fill="#80795B" points="-113.1,18.2 -114.3,18.2 -114.8,17.6 -112.5,17.6 			"/>
			<polygon fill="#5E5B43" points="-113.1,19.3 -113.1,18.2 -112.5,17.6 -112.5,19.9 			"/>
			<polygon fill="#9A916C" points="-114.8,19.9 -114.3,19.3 -113.1,19.3 -112.5,19.9 			"/>
		</g>
	</g>
</g>
</svg>
